<svg xmlns="http://www.w3.org/2000/svg" viewBox="0 0 512 512">
  <defs>
    <linearGradient id="capFill" x1="0%" x2="0%" y1="0%" y2="100%">
      <stop offset="0%" stop-color="#f3df98"/>
      <stop offset="58%" stop-color="#d7b35d"/>
      <stop offset="100%" stop-color="#a66e35"/>
    </linearGradient>
    <linearGradient id="capInner" x1="0%" x2="0%" y1="0%" y2="100%">
      <stop offset="0%" stop-color="#fff2bf"/>
      <stop offset="100%" stop-color="#e1c467"/>
    </linearGradient>
  </defs>
  <rect width="512" height="512" rx="128" fill="#111215"/>
  <g transform="translate(46 66)">
    <path
      d="M210 348c-71 0-128-10-170-24l-14-42 17-24-17-24 17-24-17-25 17-24-17-24 17-24c43-14 100-24 167-24 68 0 127 10 169 24l18 24-18 24 18 24-18 25 18 24-18 24 18 24-14 42c-42 14-99 24-173 24Z"
      fill="url(#capFill)"
      stroke="#533222"
      stroke-width="18"
      stroke-linejoin="round"
    />
    <path
      d="M210 58c61 0 114 8 153 20l10 14-13 18 13 18-13 18 13 18-13 18 13 18-13 18 8 24c-37 11-88 19-158 19-68 0-118-8-154-19l8-24-12-18 12-18-12-18 12-18-12-18 12-18-12-18 10-14c37-12 88-20 151-20Z"
      fill="url(#capInner)"
      opacity="0.9"
    />
    <path
      d="M118 118h184l-20 45-45-20-32 57-32-57-45 20Z"
      fill="#f9efc4"
      stroke="#d9be63"
      stroke-width="10"
      stroke-linejoin="round"
    />
    <path
      d="M102 218c34 16 71 24 108 24s74-8 108-24"
      fill="none"
      stroke="#fff0be"
      stroke-width="18"
      stroke-linecap="round"
    />
  </g>
</svg>
